<svg width="2048" height="662" viewBox="0 0 2048 662" fill="none" xmlns="http://www.w3.org/2000/svg">
<g opacity="0.9">
<path d="M711.5 180.514L654 226.014L637.5 233.514L616.5 241.514H598L586.5 250.014L563 260.014L480.5 257.514L454 260.014L431 256.014L412.5 252.514L394 264.014L377.5 261.514L356 282.014L346 284.014L339.5 289.514L169.5 341.014L115.5 354.514L58 384.014L133.5 362.514L201.5 354.514L234 362.514H304L374 345.514L419 349.014L509.5 341.514L535 329.514L612.5 341.514L665 346.014L732.5 359.014L904 364.014L1094.5 371.514L1178.5 401.014L1546.5 385.514L1653 413.514L1913 402.014L2002.5 397.514L2046.5 385.514V358.014L1587 249.514L1426.5 198.014L1317 158.014L1240.5 125.014L1208 94.014L1195 80.514L1176 62.014L1167.5 60.014L1155 51.514L1137 48.014L1132.5 44.014H1124L1115 46.014L1092.5 41.514L1074.5 38.014L1042.5 18.014L998 2.51404L987.5 0.514038L982.5 2.01404L970.5 12.014L937 32.014L908.5 53.014L896 58.014L861 81.014L812 126.014L785 130.514L772 142.514L763 144.014L759.5 153.014L727.5 169.514L711.5 180.514Z" fill="white" fill-opacity="0.75" stroke="white"/>
<path d="M60.5 383.014L0 394.514V529.014L92.5 541.514L202.5 555.014L377 568.514L546.5 566.014L734 586.514L954.5 624.514L1203 661.514L1352 614.514L1558 543.014L1669.5 512.514L1755.5 535.514L1919.5 580.014L1950 576.514L1979.5 561.514L2000.5 558.014L2010.5 564.514L2025 561.514L2038 577.014H2048V384.514L2003.5 396.514L1654 413.014L1547.5 384.514L1179.5 400.014L1096 370.514L734 358.014L666 345.014L612.5 340.514L536 328.514L510.5 340.514L420 348.514L375 344.514L306 362.014H235.5L202.5 353.514L134.5 362.014L60.5 383.014Z" fill="#1C1C1C" fill-opacity="0.75"/>
<path d="M250 481.014L0.5 460.514V531.014L1203 661.514L1366.5 609.514L1357.5 600.014L1269 563.514L1207.5 546.514L1129.5 535.514L1010.5 500.014L914.5 535.514L770.5 477.514L673.5 439.514L610.5 425.514L592 435.514L454 439.514L250 481.014Z" fill="#1D3A00" fill-opacity="0.75"/>
</g>
</svg>
